<svg width="46" height="34" viewBox="0 0 46 34" fill="none" xmlns="http://www.w3.org/2000/svg">
<path d="M10.2583 13.4325C9.75651 13.4325 9.27501 13.509 8.79576 13.5787C8.95101 13.0567 9.11076 12.5257 9.36726 12.0487C9.62376 11.3557 10.0243 10.755 10.4225 10.1497C10.7555 9.495 11.3428 9.05175 11.7748 8.4915C12.227 7.947 12.8435 7.58475 13.3318 7.1325C13.811 6.66 14.4388 6.42375 14.9383 6.09075C15.4603 5.7915 15.9148 5.46075 16.4008 5.30325L17.6135 4.80375L18.68 4.3605L17.5888 0L16.2455 0.323999C15.8158 0.431999 15.2915 0.557999 14.6953 0.708749C14.0855 0.821249 13.4353 1.1295 12.7108 1.41075C11.9953 1.73025 11.1673 1.94625 10.3978 2.45925C9.62376 2.94975 8.73051 3.35925 7.94301 4.01625C7.18026 4.6935 6.26001 5.28075 5.58051 6.1425C4.83801 6.948 4.10451 7.794 3.53526 8.757C2.87601 9.675 2.42826 10.683 1.95576 11.6797C1.52826 12.6765 1.18401 13.6957 0.902761 14.6857C0.369511 16.6702 0.131011 18.5557 0.0387613 20.169C-0.0377387 21.7845 0.00726132 23.1277 0.101761 24.0997C0.135511 24.5587 0.198512 25.0042 0.243511 25.3125L0.299761 25.6905L0.358261 25.677C0.758449 27.5464 1.67969 29.2642 3.01543 30.6319C4.35116 31.9996 6.0468 32.9611 7.9062 33.4054C9.7656 33.8496 11.7128 33.7583 13.5225 33.1421C15.3322 32.5259 16.9304 31.41 18.1324 29.9234C19.3343 28.4368 20.0909 26.6403 20.3144 24.7417C20.538 22.8431 20.2195 20.9199 19.3958 19.1948C18.5721 17.4696 17.2768 16.0129 15.6597 14.9932C14.0427 13.9735 12.17 13.4324 10.2583 13.4325ZM35.0083 13.4325C34.5065 13.4325 34.025 13.509 33.5458 13.5787C33.701 13.0567 33.8608 12.5257 34.1173 12.0487C34.3738 11.3557 34.7743 10.755 35.1725 10.1497C35.5055 9.495 36.0928 9.05175 36.5248 8.4915C36.977 7.947 37.5935 7.58475 38.0818 7.1325C38.561 6.66 39.1888 6.42375 39.6883 6.09075C40.2103 5.7915 40.6648 5.46075 41.1508 5.30325L42.3635 4.80375L43.43 4.3605L42.3388 0L40.9955 0.323999C40.5658 0.431999 40.0415 0.557999 39.4453 0.708749C38.8355 0.821249 38.1853 1.1295 37.4608 1.41075C36.7475 1.7325 35.9173 1.94625 35.1478 2.4615C34.3738 2.952 33.4805 3.3615 32.693 4.0185C31.9303 4.69575 31.01 5.283 30.3305 6.1425C29.588 6.948 28.8545 7.794 28.2853 8.757C27.626 9.675 27.1783 10.683 26.7058 11.6797C26.2783 12.6765 25.934 13.6957 25.6528 14.6857C25.1195 16.6702 24.881 18.5557 24.7888 20.169C24.7123 21.7845 24.7573 23.1277 24.8518 24.0997C24.8855 24.5587 24.9485 25.0042 24.9935 25.3125L25.0498 25.6905L25.1083 25.677C25.5084 27.5464 26.4297 29.2642 27.7654 30.6319C29.1012 31.9996 30.7968 32.9611 32.6562 33.4054C34.5156 33.8496 36.4628 33.7583 38.2725 33.1421C40.0822 32.5259 41.6804 31.41 42.8824 29.9234C44.0843 28.4368 44.8409 26.6403 45.0644 24.7417C45.288 22.8431 44.9695 20.9199 44.1458 19.1948C43.3221 17.4696 42.0268 16.0129 40.4097 14.9932C38.7927 13.9735 36.92 13.4324 35.0083 13.4325Z" fill="#D9D9D9"/>
</svg>
